<?xml version="1.0" standalone="no"?>
<!DOCTYPE svg PUBLIC "-//W3C//DTD SVG 20010904//EN"
 "http://www.w3.org/TR/2001/REC-SVG-20010904/DTD/svg10.dtd">
<svg version="1.0" xmlns="http://www.w3.org/2000/svg"
 width="512.000000pt" height="512.000000pt" viewBox="0 0 512.000000 512.000000"
 preserveAspectRatio="xMidYMid meet">
<metadata>
Created by potrace 1.14, written by Peter Selinger 2001-2017
</metadata>
<g transform="translate(0.000000,512.000000) scale(0.100000,-0.100000)"
fill="#000000" stroke="none">
<path d="M3277 4164 c-1 -1 -27 -5 -57 -8 -30 -4 -91 -15 -135 -26 -305 -72
-554 -236 -743 -489 -33 -45 -63 -77 -67 -71 -4 6 -30 27 -58 48 -323 236
-760 244 -1089 20 -204 -138 -344 -365 -363 -590 -4 -40 -8 -78 -10 -84 -1 -5
-23 -16 -46 -23 -172 -51 -386 -206 -496 -359 -65 -91 -69 -97 -107 -177 -154
-320 -121 -710 84 -1003 168 -240 442 -405 730 -439 72 -9 3210 -9 3275 0 101
13 115 16 207 47 656 219 917 993 522 1548 -54 74 -151 174 -216 221 l-48 34
0 91 c0 90 -5 159 -15 224 -8 52 -37 166 -45 177 -4 6 -10 24 -14 40 -19 78
-136 278 -216 370 -253 288 -591 444 -973 449 -65 1 -119 1 -120 0z"/>
</g>
</svg>
